<?xml version="1.0" encoding="utf-8"?>
<!-- Generator: Adobe Illustrator 22.0.1, SVG Export Plug-In . SVG Version: 6.00 Build 0)  -->
<svg version="1.1" id="Layer_1" xmlns="http://www.w3.org/2000/svg" xmlns:xlink="http://www.w3.org/1999/xlink" x="0px" y="0px"
	 viewBox="0 0 107.4 12" style="enable-background:new 0 0 107.4 12;" xml:space="preserve">
<g>
	<path d="M0,0h5.3v0.5C4,0.5,3.6,0.8,3.6,2.1v7.3c0,1.4,0.3,1.8,1.6,1.8v0.5H0v-0.5c1.5,0,1.5-0.5,1.5-1.6V1.9c0-1-0.2-1.4-1.5-1.4
		V0z"/>
	<path d="M6.1,11.4c0.9,0,1.1-0.2,1.2-1.4l0.3-5.1c0.1-1.2-0.1-1.4-0.9-1.4V3.1h2.6l3,6.5l2.8-6.5h2.6v0.4c-0.8,0-0.9,0.2-0.9,0.8
		l0.5,6.3c0.1,0.7,0.3,0.8,1.1,0.8v0.4h-4v-0.4c1.1,0,1.3-0.3,1.2-1.8l-0.4-5.1h0l-3.2,7.3h-0.5L8.4,4.7h0L8.1,9.8
		c-0.1,1.5,0.2,1.5,1.1,1.6v0.4H6.1V11.4z"/>
	<path d="M19.2,11.4c1,0,1.2-0.2,1.2-1.5v-5c0-1.4-0.2-1.5-1.3-1.5V3.1c0.4,0,1.1,0,1.4,0C21.2,3,22.1,3,22.3,3
		c2.6,0,4.1,0.6,4.1,2.5c0,1.6-1.4,2.8-3.3,2.8c-0.4,0-0.8,0-1.1-0.1v1.9c0,1.1,0.3,1.3,1.6,1.3v0.4h-4.3V11.4z M21.9,7.7
		c0.2,0,0.4,0.1,0.6,0.1c1.3,0,2.2-1,2.2-2.3c0-0.9-0.4-2.1-2.1-2.1c-0.3,0-0.5,0-0.7,0V7.7z"/>
	<path d="M29.7,10c0,1.2,0.2,1.4,1.4,1.4v0.4h-4.3v-0.4c1.2,0,1.3-0.3,1.3-1.2V4.6c0-0.9-0.2-1.1-1.3-1.1V3.1c0.3,0,1-0.1,2-0.1
		c0.7,0,1.4,0,1.7,0c2.8,0,3.8,1.2,3.8,2.5c0,1-0.6,1.8-1.8,2.3c0.2,0.2,0.8,0.7,1,1l0.9,0.9c1.2,1.2,2.2,1.8,3.3,1.9v0.4
		c-2.7,0.1-3.4-0.4-4.7-1.7l-0.7-0.7c-0.7-0.7-0.9-0.9-1.5-1.3c-0.4,0-0.9,0-1.2,0V10z M29.7,7.8c0.1,0,0.4,0,0.4,0
		C32,7.7,32.6,7,32.6,5.6c0-1.4-0.8-2.2-2.3-2.2c-0.2,0-0.5,0-0.7,0.1V7.8z"/>
	<path d="M42.4,2.9c3,0,5.1,1.8,5.1,4.4c0,2.5-2,4.7-5.1,4.7c-2.9,0-5-1.8-5-4.3C37.3,4.9,39.5,2.9,42.4,2.9z M42.6,11.5
		c1.9,0,3.2-1.6,3.2-3.9c0-2.5-1.5-4.3-3.5-4.3c-2,0-3.3,1.5-3.3,4C39,10.1,40.8,11.5,42.6,11.5z"/>
	<path d="M49,4.5c-0.4-1-0.5-1.1-1.4-1.1V3.1h4.3v0.4c-1.1,0-1.3,0.3-1.3,0.6c0,0.2,0.1,0.5,0.2,0.8l2.1,5.2l2-4.9
		c0.2-0.6,0.3-0.9,0.3-1.1c0-0.5-0.4-0.6-1.3-0.6V3.1h3.4v0.4c-1,0-1.2,0.5-1.6,1.6L52.8,12H52L49,4.5z"/>
	<path d="M57.7,11.8v-0.4c1.1,0,1.4-0.2,1.4-1v-6c0-0.9-0.5-0.9-1.4-0.9V3.1h7.1l0.1,2.1h-0.4l-0.1-0.3c-0.3-1.1-0.5-1.2-1.4-1.2
		h-2.5V7h2.2c0.8,0,1-0.1,1-1.1h0.4v2.8h-0.4c-0.1-1-0.3-1.1-1-1.1h-2.2v2.5c0,0.9,0.1,1,0.8,1H63c1.4,0,1.7-0.2,2.1-1.6h0.4
		l-0.2,2.2H57.7z"/>
	<path d="M72.2,11.8v-0.5c1.5,0,1.8-0.1,1.8-1.6V2.1c0-1.3-0.1-1.7-1.8-1.6V0h6.2v0.5c-2,0-2.3,0.1-2.3,1.5v8c0,0.8,0.2,0.9,1,0.9
		h1.9c1.6,0,1.7-0.1,3.1-2h0.6l-1.5,2.9H72.2z"/>
	<path d="M83.2,3.1h3.9v0.4c-0.9,0-1.2,0.2-1.2,1.2v5.4c0,1,0.2,1.3,1.2,1.3v0.4h-3.9v-0.4c1.1,0,1.1-0.4,1.1-1.2V4.5
		c0-0.8-0.2-1.1-1.1-1V3.1z"/>
	<path d="M90.7,10c0,1.1,0.2,1.3,1.2,1.3v0.4H88v-0.4c0.9,0,1.1-0.3,1.1-1.1V4.5c0-0.8-0.3-1-1.1-1V3.1h6.6v1.7h-0.4
		c-0.1-0.9-0.3-1.1-1.4-1.1h-2.2v3.1h2.2c0.9,0,1-0.1,1.1-0.9h0.4v2.6H94c-0.1-0.9-0.3-1-1.2-1h-2.1V10z"/>
	<path d="M95.3,11.8v-0.4c1.1,0,1.4-0.2,1.4-1v-6c0-0.9-0.5-0.9-1.4-0.9V3.1h7.1l0.1,2.1h-0.4l-0.1-0.3c-0.3-1.1-0.5-1.2-1.4-1.2
		h-2.5V7h2.2c0.8,0,1-0.1,1-1.1h0.4v2.8h-0.4c-0.1-1-0.3-1.1-1-1.1h-2.2v2.5c0,0.9,0.1,1,0.8,1h1.5c1.4,0,1.7-0.2,2.1-1.6h0.4
		l-0.2,2.2H95.3z"/>
	<path d="M107.4,10.9c0,0.7-0.5,1.1-1.3,1.1c-0.8,0-1.3-0.4-1.3-1.1c0-0.7,0.6-1.2,1.3-1.2C106.9,9.7,107.4,10.2,107.4,10.9z"/>
</g>
</svg>
