<?xml version="1.0" encoding="utf-8"?>
<!-- Generator: Adobe Illustrator 22.0.1, SVG Export Plug-In . SVG Version: 6.00 Build 0)  -->
<svg version="1.1" id="Layer_1" xmlns="http://www.w3.org/2000/svg" xmlns:xlink="http://www.w3.org/1999/xlink" x="0px" y="0px"
	 viewBox="0 0 612 326.5" style="enable-background:new 0 0 612 326.5;" xml:space="preserve">
<style type="text/css">
	.st0{fill:#FFFFFF;}
</style>
<g>
	<path class="st0" d="M212.4,179.5c3.7-0.1,5.5-4.2,5.5-6.8c0-2.6-2.3-4.8-4.2-5.3c-1.9-0.5-6.9,0-6.9,0v10.5
		C206.8,177.9,206.6,179.7,212.4,179.5z"/>
	<path class="st0" d="M188.6,127.4l-6.3,0.3v10c0,0,2.7,0.7,5.1,0.5c1.5-0.2,3.6-0.5,4.5-1.6c0,0,1.1-2.2,1.1-3.9
		C193.1,130.8,191.5,128.1,188.6,127.4z"/>
	<path class="st0" d="M250.6,130.1C250.6,130.5,250.6,130.4,250.6,130.1L250.6,130.1z"/>
	<path class="st0" d="M0,0v325.8h324.5V0H0z M32.4,156.1v-22.9c0-4.4-0.1-6.6-4.8-7c-1.2-0.1,0.6-1.4,0.6-1.4c6,0.5,14.1,0,14.1,0
		c0.6,0.2,0.6,0.3,0.1,1.2c-0.4,0.7-3.9-0.6-3.9,6.5v20.1c0,7.1,4.5,11.3,11,11.3s10.9-3.5,10.9-9.3v-22.1l0,0
		c0-4.4-2.1-6.1-6.7-6.4c-1.2-0.1,0.6-1.4,0.6-1.4c6.2-0.1,13.8,0,13.8,0c0.6,0.2,0.6,0.3,0.1,1.2c-0.4,0.7-3.9-0.7-3.9,6.4l0,0.1
		v22.2c0,4.8-3.4,8.2-3.4,8.2c-2.1,2.7-6.1,5.5-12.9,5.5C31.9,168.4,32.4,156.1,32.4,156.1z M60.8,181.3c-0.8,5-5,9.3-8.2,10
		c-2.5,0.5-6.6,0.2-5.5-6.4c0.3-1.9,1.6-4,2.9-5.6C54.3,173.9,62.1,173.4,60.8,181.3z M73.6,181.6c0,0-0.9,1.2-1.3,1
		c-0.4-0.2,1.1-3.7-2.9-3.5c-1.9,0.1-2.1-0.2-2.1,0c0,0.2-1.8,7.4-6.4,12.6c-4.6,5.1-11.3,6.6-15.1,3.4v-1.6c0,0,2.6,1.2,4.8,1.1
		c2.7-0.1,6.9-1.4,9.7-6.4c3-5.4,3.7-8.5,3.7-9c0-0.3-1-0.2-1-0.2l-0.6-1.8h2.5c0,0,1-4,5.2-7.6c2.9-2.4,6-4.5,10.1-5.3l1.5-0.2v5.8
		c-1.9,0-2.1-1.6-1.9-2.7c0.2-1.1-4.4,0.8-7.7,4c-2.9,2.7-3.9,5.8-3.9,5.8c0,0.2,4.2,0.3,4.7-1.3c0-0.2,0.8,0.3,0.8,0.3V181.6z
		 M90.3,126.7c-1.2-0.1,0.6-1.4,0.6-1.4c6,0.4,9.2-0.1,9.2-0.1c0.6,0.2,0.6,0.3,0.1,1.2c-0.4,0.7-3.2-0.7-3.1,6.4l0,24.1
		c0,0.7,0,0.9-0.6,1.3c-0.5,0.3-0.7,0.1-1.3,0.9c-0.9,1-1.3-0.4-1.3-0.4c-1.7-5.6-17.1-25.1-17.1-25.1l0,16.1c0,4.4-0.4,6.1,4.2,6.5
		c1.2,0.1-0.7,1.4-0.7,1.4c-6-0.5-9.7-0.2-9.7-0.2c-0.6-0.2-0.6-0.3-0.1-1.2c0.4-0.7,3.6,0.8,3.7-6.3l0-12.5l0-4.6
		c0-4.4,0.4-6.1-4.2-6.4c-1.2-0.1,0.6-1.4,0.6-1.4c6,0.5,6.8,0.2,6.8,0.2l1.4,2.1c0,0,15,22.4,15.7,22l0-16.1
		C94.6,128.7,94.9,127,90.3,126.7z M112.4,190.3c0,2.1,0,11.8,0,11.8s-7.1,2.6-9,3.9c-3.7,2.4-3.5,2.4-7.6,2.4
		c-3.2,0-12.9-2.3-15.5-10.6c-2.6-8.4-2.2-18.5,3.9-26.9c4.2-5.8,9.8-7.2,15.6-7.2c3.2,0,6.3,0.8,7.2,0.8c1,0,2.7-0.8,3.2-1
		c0.5-0.2,1.1,0.5,1.1,0.5l-0.3,11.6l-1.4,0.5c0,0-1.3-7.2-6-7.7c-4.7-0.5-10.3-0.6-13.2,2.7c-2.9,3.4-5,8.9-5,14.8
		c0,8.7,1.6,17.4,13.5,17.4c6.6,0,6.9-4.8,6.9-4.6c0-0.9,0-7.4,0-8.4c0-1.1-2.7-2.4-4.8-2.4l0.5-1.8h14.5l-0.2,1.5
		C116,187.4,112.4,188.2,112.4,190.3z M110.4,151.4c0,3.5,1.1,4.5,3.4,4.8c0.8,0.1-0.2,1.1-0.3,1.3c-0.2,0.2-4.8-0.5-10,0
		c-0.6,0.1-0.2-0.5-0.2-1.1s2.9-0.2,2.9-3.4l0-20.9c0-6-4.5-5.5-4.5-5.5s-0.9-1.5,1.7-1.5l0.8,0c1.1,0,7.3,0.1,8.9,0
		c0.7,0,0.7,0.2,0.5,0.5c-0.2,0.3-0.1,0.8-0.6,0.9c0,0-2.7-0.6-2.7,4.8L110.4,151.4z M124.8,132.3l6.6,18.7c0,0,4.5-11,6.1-15.9
		c1.6-5,1-6.9-1.3-8.1c-2.3-1.1-0.5-1.8-0.5-1.8h9.3v1.1c-2.4,0.3-4,6.3-5,9c-3.3,8.9-8.4,24.8-8.7,25.6c-0.3,0.7-0.3,1-1,0.6
		l-10.6-28.7c-2.4-6.4-5-6.6-5-6.6s-0.5-1.1,2.1-1.1h10.3l-0.5,1.4C125.1,126.7,123.4,127.9,124.8,132.3z M115.5,165.6
		c-1.3,0.2,0.5-1.5,0.5-1.5h10.6l-0.2,1.6c0,0-2.9,0.6-2.9,2.7c0,2.1,0,17.9,0,18.8c0,3.7,4.2,6.3,7.1,6.3s9-2.1,9-7.9
		s0-17.2,0-17.4c0-1.1-1.3-2.7-4.3-2.7c-0.8,0,1.3-1.6,1.3-1.6h8.7l-0.3,1.6c0,0-2.3,0.8-2.3,2.9c0,2.3-0.2,14.6-0.2,15.9
		c0,6.9-5.8,12.6-11.9,12.6c-7.6,0-12.1-3.4-12.1-9.3c0,0,0-19,0-20.1S115.5,165.6,115.5,165.6z M252.5,201.2
		c-5.4,0-136.5,0-136.5,0l1.3-1.3c0,0,133.7,0,136.6,0L252.5,201.2z M157,138.1c0,0,4.3-0.3,6.1-0.6c1.8-0.3,2.6-1,3.2-1.9
		c0.3-0.5,1.3-0.8,1.3,0.3c0,1.6-0.3,4.5,0,6.6c0.1,0.8-1.1,1.8-1.3,0.5c-0.2-1.3-1.4-3.7-3.4-3.5c-1.9,0.2-5.2,0.5-6,1l-0.2,0.2
		c0,0-0.2,9.7,0,11.6c0.2,1.9,1.9,2.4,7.6,2.3c6.4-0.2,6.8-3.9,7.4-4.7c1.5-1.7,1.4,0,1.4,0s-0.9,5.6-1.1,7.1
		c-0.2,1.3-1.9,0.3-2.9,0.3c-1,0-19.2,0-19.2,0c-0.6,0-1.3-0.8-1.3-1.5s3.4-0.3,3.4-3.5l0-20.5c0-5.5-4.2-5.3-4.2-5.3
		s0.2-1.4,1.6-1.4h19.3l2.3-0.2c0,0,0.4,3.4,0.8,5.6c0.3,1.8-0.6,3.7-1.4,1.1c-1-3.2-4.8-3.4-4.8-3.4h-8.9v9.7L157,138.1z
		 M148.9,164.1h19.3l2.3-0.2c0,0,0,3.5,0.8,5.6c0.8,2.1-1,4.3-1.8,1.1c-0.8-3.2-4.5-3.4-4.5-3.4h-8.9v9.7c0,0,3.2-0.5,5.6-0.5
		c2.2,0,3.6,0,4-1.5c0.9-0.3,1.1,0.5,1.1,0.5v6.4c0,0-1.1,1.1-1.3,0.3c-0.6-3.2-3.5-3.4-3.5-3.4s-1.1,0-3.2,0c-2.1,0-2.7,1-2.7,1
		s-0.2,9.7,0,11.6c0.2,1.9,1.9,2.3,7.6,2.3c5.6,0,5.6-2.2,7.1-4.7c1.5-2.6,1.8,0,1.8,0s-0.4,5.8-1.1,7.1c-0.6,1.1-1.9,0.4-2.9,0.3
		c-7.1-0.3-19.2,0-19.2,0c-1.1,0-1.6,0.2-0.8-1.3c0.3-0.6,2.9-0.5,2.9-3.7l0-20.4c0-5.5-4.2-5.3-4.2-5.3S146.3,164.1,148.9,164.1z
		 M198.1,150.2c5.1,7.7,9.8,9.5,14.7,9.7c1.8,0.1,5.7-0.2,10.1-2.7c2.8-1.6,1.1,0.6,0.8,1c-0.3,0.3-5.4,4.6-13,4.6
		c-9.2,0-15.1-7.6-18-12.1c-2.9-4.5-6.8-8.6-6.8-8.6c-1.6-2-3.7-1.3-3.7-1.3s0,10.9,0,12.4c0-0.3-0.2,1.8,2.2,2.5
		c2.5,0.6,0.8,1.6,0.8,1.6l-10.4,0c-0.6,0,0-0.3,0-1c0-0.6,3.1-0.2,3.1-3.4l0-21.2c0.5-5.3-4.2-5.6-4.2-5.6c0-1.3,0.7-1.4,2.3-1.3
		c4.2,0.3,13.1,0.4,15.2,0.2c3.7,0,6.7,3.5,6.7,7.2c0,5-5.5,8.1-8.7,8.1C189.4,140.2,193,142.4,198.1,150.2z M206.1,149.2
		c1.7,2.6,5.6,5,8.7,5c3.1,0,7.2-1.6,7.2-5.5c0-4.5-2.9-5.8-8.1-6.9c-5.2-1.1-8.7-4-8.7-8.5c0-4.5,5.2-8.9,10.8-9
		c2.1-0.1,5.3,0.5,6.8,0.6c1.4,0.2,2.3-0.3,2.3-0.3c0,0.2-0.5,2.3-0.5,3.5c0,1.1,0.5,4.5,0.5,4.5l-1.4,0.5c0,0,0-1.4-1.1-3.1
		c-1.1-1.6-3.2-2.7-6-2.7c-2.7,0-6.6,0.8-6.6,4.5c0,3.7,4.5,5.3,6.8,5.8c2.3,0.5,10.1,1.9,10.1,8.4c0,7.7-5.2,11.4-13,11.4
		c-6.4,0-10.7-3.9-10.3-5.3c0.5-1.9-0.1-6-0.1-6l1.7-0.6C205.2,145.5,204.8,147.3,206.1,149.2z M235.7,151.3c0,3.5,1.1,4.5,3.4,4.8
		c0.8,0.1-0.2,1.1-0.3,1.3c-0.2,0.2-4.8-0.5-10,0c-0.6,0.1-0.2-0.5-0.2-1.1c0-0.6,2.9-0.2,2.9-3.4l0-20.9c0-6-4.5-5.5-4.5-5.5
		s-0.6-1.4,1.9-1.4c1.1,0,6.7,0.2,9.5,0c0.7,0,0.7,0.2,0.5,0.5c-0.2,0.3,0,0.6-0.5,0.6c0,0-2.7-0.2-2.7,5.1L235.7,151.3z
		 M233.7,164.3l-0.5,1.6c0,0-2.3,0.2-2.3,2.1c0,1.9,0,7.1,0,7.9c0,0.8-0.3,1.3,0.5,1.3h14c0,0,0-2.5,0-9.4c0-1.9-3-2.2-3-2.2
		l0.2-1.3l10.9,0.1l-0.2,1c0,0-3.2,0.6-3.2,2.4c0,1.6,0,22.1,0,23.8c0,3.5,2.2,3.7,2.9,3.7l0,1.1c0,0-9.2,0.1-10,0
		c-0.9-0.1-1-0.7,0-1.3c0.7-0.4,2.3-0.3,2.3-3.5c0-1.4,0-11.9,0-11.9s-12.7,0-13.5,0c-0.8,0-1-0.2-1,0.5c0,0.6,0,9.2,0,11.3
		c0,2.1,0.9,3,2.3,3.4c1.8,0.5,0.5,1.6,0.3,1.6c-1.3,0-10,0-10,0l0.2-1.1c2-0.2,2.9-2.6,2.9-3.7c0-1.3,0.1-22.1,0-23.8
		c-0.2-2.4-3.2-2.1-3.2-2.1l0.3-1.3H233.7z M206.6,183.3c0,0.8,0,7.6,0,8.7c0,1.1,1.6,2.9,4.2,2.9c0.2,0-0.6,1.3-0.6,1.3H199
		c0,0-0.5-0.8,0.3-1.1c0.8-0.3,2.3-0.6,2.4-2.6c0.2-1.9,0-21.9,0-23.7c0-1-0.8-2.6-3.1-2.6l0.5-1.5c0,0,7.1,0.1,9.7-0.3
		c4.2-0.6,7.8-0.4,10.8,1.5c2.1,1.3,3.1,4.2,3.2,6c0.3,3.7-2.1,6.2-4,7.6c-2.9,2.1-5.5,2.4-11.6,1.8
		C206.5,181.2,206.6,182.5,206.6,183.3z M174.4,164.3h11.3l-0.5,1.3c0,0-3.2-0.5-3.2,4c0,2.9,0,20.8,0,21.7c0,1-0.8,1.3,1.9,2.1
		c1.2,0.4,7.2,0.2,8.9-0.5c3.1-1.3,3.9-5,3.9-5l1-0.2c0,0-0.3,6.9-0.8,7.9c-0.5,1-1.5,0.7-3.9,0.5c-4-0.3-18.5,0.2-18.5,0.2l-0.3-1
		c0,0,3.1-0.2,3.1-6.8c0-5.6,0-18.5,0-20.1c0-3.4-2.3-2.2-3.5-3.1C173.1,165.1,174.4,164.3,174.4,164.3z M265.2,132.8
		c0,0.6-1.3,1.4-1.5,0.3c-0.7-4.2-1.4-4.7-4.5-4.7c-1.8,0-3.9-0.6-3.9,1.4c0,2.1,0,22.1,0,23.5c0,2.3,2.5,2.4,3.4,2.9
		c0.3,0.2-0.3,1.1-0.3,1.1H247c0,0-0.5-1.3,0.5-1.5c1-0.2,3.1-1.9,3.1-3.4c0-1.4,0-20.9,0-22.5c-0.1-0.5-0.4-1.7-1.6-1.7
		c-3.9,0-6.3-0.8-7.1,4.2c-0.2,1-1.6,2.1-1.6,0c0-0.8,0.1-5,0-6.1c-0.2-1.6,0.6-1.8,2.7-1c0,0,17.7,0,18.7,0c1,0,2.6-1,3.2-0.3
		c0,0,0.3,0.3,0.3,1.6C265.2,128.8,265.2,131.7,265.2,132.8z M296.4,126.8c-0.8,0.3-0.8,0.4-1.3,0.5c-1.7,0.2-2,1.8-3,3.4l-1,1.7
		c-1.8,3.4-6.1,10.9-6.6,11.8c0,0-0.1,6.8,0,9.3c0.1,2.4,1.5,2.9,2.4,2.8c0.9-0.1,1.4,0.2,0.9,0.7c-0.5,0.6,0,0.7-1.5,0.7
		c0,0-4.4,0-7.5,0c-1.9,0-2.1,0.1-2-0.4c0.1-0.5,0.4-0.8,1.2-1c1.1-0.3,1.8-0.6,1.9-2.9c0.1-1.6,0.1-7.1-0.3-8.1
		c-1-2.3-9.2-16.8-9.6-17.5c-0.4-0.6-2-1.1-2.3-1.3c-1.2-0.6,0.2-1,0.6-1c0.7,0,10,0,11.2,0c0.6,0,0.2,1.1-0.3,1.3
		c-0.8,0.3-0.8,0.4-1.3,0.5c-1.8,0.2-1.9,1.5-1,3.1c1,1.6,6.1,10.8,6.1,10.8l6.4-10.5c0.7-1.4-0.1-3-0.6-3.4
		c-0.9-0.7-2.1-0.5-2.4-0.6c-1.2-0.6,0.2-1,0.6-1c0.7,0,8.5,0,9.7,0C297.4,125.5,296.9,126.6,296.4,126.8z M296.1,121.3
		c-2.9,0-269.5,0-269.5,0l1.3-1.3c0,0,266.7,0,269.5,0L296.1,121.3z"/>
	<path class="st0" d="M52,180.8c-2.5,3.3-3.2,7.4-0.6,7.7c2.6,0.3,3.5-1.1,5.2-3.2c1.6-2.1,2.1-4,1-6.3
		C56.6,177.5,53.9,178.3,52,180.8z"/>
</g>
<path class="st0" d="M418.2,305.9c-0.6,0-2.7,0.1-4.2,0.2c-0.8,0-2.3,0.1-3.3,0.1v0.9c2.5,0,3,0.3,3,3.3v11.2c0,2.8-0.5,3.3-2.7,3.3
	v0.9h9.7V325c-2.9,0-3.6-0.6-3.6-3v-4.3c0.9,0.2,1.7,0.2,2.6,0.2c4.5,0,7.5-2.6,7.5-6.3C427.4,307.3,424.1,305.9,418.2,305.9z
	 M418.6,316.9c-0.5,0-0.9-0.1-1.4-0.2v-9.8c0.5-0.1,0.9-0.1,1.5-0.1c3.8,0,4.7,2.6,4.7,4.7C423.5,314.7,421.5,316.9,418.6,316.9z
	 M463.7,305.7c-6.7,0-11.5,4.5-11.5,10.9c0,5.7,4.8,9.8,11.4,9.8c7.1,0,11.7-5,11.7-10.7C475.2,309.8,470.5,305.7,463.7,305.7z
	 M464.1,325.3c-4,0-8.1-3.3-8.1-9.6c0-5.5,2.9-9,7.5-9c4.6,0,8,4,8,9.8C471.4,321.8,468.5,325.3,464.1,325.3z M443.7,318.9
	c-0.5-0.5-1.9-1.8-2.4-2.2c2.7-1.1,4-2.8,4-5.1c0-2.9-2.2-5.7-8.6-5.7c-0.6,0-2.2,0-3.9,0.1c-2.2,0.1-3.8,0.2-4.5,0.2v0.9
	c2.6,0,2.9,0.5,2.9,2.6v12.7c0,2.1-0.3,2.8-2.9,2.7v0.9h9.7V325c-2.9,0.1-3.2-0.4-3.2-3.1v-4.2c0.8,0.1,1.9,0.1,2.8,0
	c1.3,1,1.8,1.4,3.4,3l1.7,1.7c2.8,2.8,4.4,3.9,10.6,3.8v-0.9c-2.6-0.3-4.8-1.5-7.6-4.4L443.7,318.9z M435.9,316.9
	c-0.2,0-0.8-0.1-1-0.1v-9.9c0.3-0.1,1-0.1,1.5-0.1c3.4,0,5.1,1.9,5.1,5.1C441.5,315.1,440.1,316.7,435.9,316.9z M407,323.2
	l-1.1-14.4c-0.1-1.5,0.3-1.8,2-1.8v-0.9H402l-6.4,14.6l-6.8-14.6h-5.8v0.9c1.8,0,2.2,0.4,2,3.2l-0.8,11.6c-0.2,2.7-0.8,3.1-2.7,3.1
	v0.9h7V325c-2.1-0.2-2.8-0.2-2.6-3.5l0.8-11.7h0.1l7.4,16.1h1.1l7.3-16.5h0.1l0.9,11.7c0.3,3.3-0.2,4-2.8,4v0.9h9V325
	C407.7,325,407.1,324.9,407,323.2z M367.5,300.4c3,0,3.5,0.9,3.5,3.2V321c0,2.4-0.1,3.8-3.5,3.7v1.2h11.9v-1.2
	c-3.1,0.1-3.7-0.8-3.7-4V304c0-3,0.8-3.7,3.7-3.7v-1.2h-11.9V300.4z M567.1,307c1.8,0,2.4,0.6,2.4,2.3v13.2c0,1.7-0.4,2.5-2.4,2.5
	v0.9h8.7V325c-2.4,0-2.7-0.5-2.7-3V316h4.8c2,0,2.5,0.4,2.7,2.4h0.9v-5.8h-0.9c-0.2,1.7-0.6,2-2.6,2h-5v-7h5c2.6,0,3.1,0.4,3.3,2.5
	h0.9v-3.9h-15V307z M595.6,324.4h-3.5c-1.6,0-1.9-0.3-1.9-2.3v-5.7h4.9c1.7,0,2.1,0.3,2.4,2.5h0.9v-6.3h-0.9
	c-0.2,2.2-0.5,2.4-2.4,2.4h-4.9v-7.4h5.6c2,0,2.5,0.1,3.2,2.7l0.2,0.7h0.9l-0.3-4.7h-16.1v0.9c2.1,0,3.2,0.1,3.2,2.1v13.6
	c0,1.8-0.6,2.2-3.2,2.2v0.9h17.1l0.5-5h-0.9C599.5,324,598.8,324.4,595.6,324.4z M608,321.2c-1.8,0-3,1.1-3,2.6c0,1.5,1.2,2.5,3,2.5
	c1.8,0,3-0.9,3-2.5C611,322.3,609.7,321.2,608,321.2z M556.1,307c2.2,0,2.6,0.7,2.6,2.4v12.9c0,1.8-0.1,2.8-2.6,2.7v0.9h8.8V325
	c-2.3,0.1-2.7-0.6-2.7-2.9v-12.3c0-2.2,0.6-2.7,2.7-2.7v-0.9h-8.8V307z M510.3,324.4h-3.5c-1.6,0-1.9-0.3-1.9-2.3v-5.7h4.9
	c1.7,0,2.1,0.3,2.4,2.5h0.9v-6.3h-0.9c-0.2,2.2-0.5,2.4-2.4,2.4h-4.9v-7.4h5.6c2,0,2.5,0.1,3.2,2.7l0.2,0.7h0.9l-0.3-4.7h-16.1v0.9
	c2.1,0,3.2,0.1,3.2,2.1v13.6c0,1.8-0.6,2.2-3.2,2.2v0.9h17.1l0.5-5H515C514.1,324,513.5,324.4,510.3,324.4z M489.8,307
	c2,0,2.8,0.3,2.8,1.4c0,0.5-0.2,1.1-0.7,2.4l-4.6,11.2l-4.8-11.7c-0.3-0.9-0.5-1.5-0.5-1.9c0-0.7,0.4-1.3,3-1.4v-0.9h-9.7v0.9
	c2,0,2.4,0.3,3.3,2.4l6.8,16.9h1.9l6.5-15.7c1-2.4,1.4-3.6,3.7-3.6v-0.9h-7.7V307z M546.8,323.9h-4.4c-2,0-2.3-0.3-2.3-2.1v-18.1
	c0-3.2,0.5-3.4,5.1-3.4v-1.2h-14v1.2c3.9-0.1,4.2,0.8,4.2,3.7v17c0,3.4-0.7,3.7-4.2,3.7v1.2h20.7l3.3-6.5H554
	C550.7,323.7,550.5,323.9,546.8,323.9z"/>
</svg>
